<svg version="1.1" xmlns="http://www.w3.org/2000/svg" xmlns:xlink="http://www.w3.org/1999/xlink" viewBox="0 0 171 171"><g fill="none" fill-rule="nonzero" stroke="none" stroke-width="1" stroke-linecap="butt" stroke-linejoin="miter" stroke-miterlimit="10" stroke-dasharray="" stroke-dashoffset="0" font-family="none" font-weight="none" font-size="none" text-anchor="none" style="mix-blend-mode: normal"><path d="M0,171.98863v-171.98863h171.98863v171.98863z" fill="none"></path><g fill="#ffffff"><path d="M73.03125,21.375c-28.46568,0 -51.65625,23.19059 -51.65625,51.65625c0,28.46566 23.19057,51.65625 51.65625,51.65625c12.31328,0 23.63259,-4.34966 32.52173,-11.57812l34.95007,34.95007c1.34031,1.39595 3.33057,1.95826 5.20321,1.47007c1.87264,-0.4882 3.33506,-1.95061 3.82325,-3.82325c0.4882,-1.87264 -0.07411,-3.8629 -1.47007,-5.20321l-34.95007,-34.95007c7.22847,-8.88914 11.57813,-20.20846 11.57813,-32.52173c0,-28.46566 -23.19057,-51.65625 -51.65625,-51.65625zM73.03125,32.0625c22.68973,0 40.96875,18.27903 40.96875,40.96875c0,11.05306 -4.35979,21.03912 -11.43201,28.39563c-0.43594,0.32042 -0.8207,0.70518 -1.14112,1.14112c-7.35651,7.07221 -17.34257,11.43201 -28.39563,11.43201c-22.68973,0 -40.96875,-18.27903 -40.96875,-40.96875c0,-22.68972 18.27902,-40.96875 40.96875,-40.96875zM72.94775,49.79846c-2.94854,0.04606 -5.30255,2.47169 -5.26025,5.42029v12.46875h-12.46875c-1.92715,-0.02725 -3.71968,0.98526 -4.69121,2.64982c-0.97153,1.66457 -0.97153,3.72329 0,5.38786c0.97153,1.66457 2.76406,2.67708 4.69121,2.64982h12.46875v12.46875c-0.02725,1.92715 0.98526,3.71968 2.64982,4.69121c1.66457,0.97153 3.72329,0.97153 5.38786,0c1.66457,-0.97153 2.67708,-2.76406 2.64982,-4.69121v-12.46875h12.46875c1.92715,0.02725 3.71968,-0.98526 4.69121,-2.64982c0.97153,-1.66457 0.97153,-3.72329 0,-5.38786c-0.97153,-1.66457 -2.76406,-2.67708 -4.69121,-2.64982h-12.46875v-12.46875c0.02073,-1.44502 -0.54464,-2.83683 -1.56718,-3.85806c-1.02254,-1.02123 -2.41508,-1.58481 -3.86007,-1.56223z"></path></g></g></svg>